<!-- Generated by IcoMoon.io -->
<svg version="1.1" xmlns="http://www.w3.org/2000/svg" width="896" height="1024" viewBox="0 0 896 1024">
<title></title>
<g id="icomoon-ignore">
</g>
<path fill="#000" d="M872 248h-848c-13.254 0-24-10.746-24-24v-64c0-13.254 10.746-24 24-24h848c13.254 0 24 10.746 24 24v64c0 13.254-10.746 24-24 24zM872 568h-848c-13.254 0-24-10.746-24-24v-64c0-13.254 10.746-24 24-24h848c13.254 0 24 10.746 24 24v64c0 13.254-10.746 24-24 24zM872 888h-848c-13.254 0-24-10.746-24-24v-64c0-13.254 10.746-24 24-24h848c13.254 0 24 10.746 24 24v64c0 13.254-10.746 24-24 24z"></path>
</svg>
