<!-- Generated by IcoMoon.io -->
<svg version="1.1" xmlns="http://www.w3.org/2000/svg" width="1152" height="1024" viewBox="0 0 1152 1024">
<title></title>
<g id="icomoon-ignore">
</g>
<path fill="#000" d="M1103.968 128h-815.424l-17.44-89.216c-4.416-22.528-24.16-38.784-47.104-38.784h-200c-13.248 0-24 10.752-24 24v48c0 13.248 10.752 24 24 24h160.48l139.2 711.392c-22.080 23.008-35.68 54.208-35.68 88.608 0 70.688 57.312 128 128 128s128-57.312 128-128c0-0.032 0-0.096 0-0.128 0-23.52-6.368-45.536-17.504-64.448l0.32 0.608h290.336c-10.784 18.304-17.152 40.352-17.152 63.872 0 0.064 0 0.096 0 0.16v0c0 70.688 57.312 128 128 128s128-57.312 128-128c0-36.288-15.104-68.992-39.36-92.288l2.080-9.504c6.496-29.92-16.288-58.208-46.912-58.208h-564.288l-18.784-96h624.8c22.592 0 42.112-15.744 46.912-37.792l90.432-416c6.496-29.92-16.288-58.208-46.912-58.208zM416 944c-26.464 0-48-21.536-48-48s21.536-48 48-48 48 21.536 48 48-21.536 48-48 48zM928 944c-26.464 0-48-21.536-48-48s21.536-48 48-48 48 21.536 48 48-21.536 48-48 48zM974.88 544h-604.928l-62.624-320h737.088l-69.568 320z"></path>
</svg>
