<!-- Generated by IcoMoon.io -->
<svg version="1.1" xmlns="http://www.w3.org/2000/svg" width="640" height="1024" viewBox="0 0 640 1024">
<title></title>
<g id="icomoon-ignore">
</g>
<path fill="#000" d="M415.2 512l215.424-215.424c12.448-12.448 12.448-32.672 0-45.152l-50.048-50.048c-12.448-12.448-32.672-12.448-45.152 0l-215.424 215.456-215.424-215.424c-12.448-12.448-32.672-12.448-45.152 0l-50.048 50.048c-12.448 12.448-12.448 32.672 0 45.152l215.424 215.424-215.424 215.456c-12.448 12.448-12.448 32.672 0 45.152l50.048 50.048c12.448 12.448 32.672 12.448 45.152 0l215.424-215.456 215.456 215.456c12.448 12.448 32.672 12.448 45.152 0l50.048-50.048c12.448-12.448 12.448-32.672 0-45.152l-215.456-215.424z"></path>
</svg>
