<!-- Generated by IcoMoon.io -->
<svg version="1.1" xmlns="http://www.w3.org/2000/svg" width="1024" height="1024" viewBox="0 0 1024 1024">
<title></title>
<g id="icomoon-ignore">
</g>
<path fill="#000" d="M916.8 128.608c-115.616-97.216-294.208-82.592-404.8 30.016-110.592-112.608-289.184-127.392-404.8-30.016-150.4 126.592-128.416 332.992-21.216 442.4l350.816 357.408c20 20.384 46.816 31.808 75.2 31.808 28.608 0 55.2-11.2 75.2-31.616l350.816-357.408c107.008-109.408 129.408-315.808-21.216-442.592zM869.6 503.616l-350.816 357.408c-4.8 4.8-8.8 4.8-13.6 0l-350.816-357.408c-72.992-74.4-87.808-215.2 14.592-301.408 77.792-65.408 197.792-55.584 272.992 20.992l70.016 71.392 70.016-71.392c75.616-76.992 195.616-86.4 272.992-21.184 102.208 86.208 87.008 227.808 14.592 301.6z"></path>
</svg>
