<!-- Generated by IcoMoon.io -->
<svg version="1.1" xmlns="http://www.w3.org/2000/svg" width="896" height="1024" viewBox="0 0 896 1024">
<title></title>
<g id="icomoon-ignore">
</g>
<path fill="#000" d="M448.192 282.016c-127.2 0-229.792 102.592-229.792 229.792s102.592 229.792 229.792 229.792 229.792-102.592 229.792-229.792-102.592-229.792-229.792-229.792zM448.192 661.216c-82.208 0-149.408-67.008-149.408-149.408s67.008-149.408 149.408-149.408 149.408 67.008 149.408 149.408-67.2 149.408-149.408 149.408zM740.992 272.608c0 29.792-24 53.6-53.6 53.6-29.792 0-53.6-24-53.6-53.6s24-53.6 53.6-53.6 53.6 24 53.6 53.6zM893.216 327.008c-3.392-71.808-19.808-135.392-72.384-187.808-52.384-52.416-116-68.8-187.808-72.416-74.016-4.192-295.808-4.192-369.792 0-71.584 3.392-135.2 19.808-187.808 72.192s-68.8 116-72.416 187.808c-4.192 74.016-4.192 295.808 0 369.792 3.392 71.808 19.808 135.392 72.416 187.808s116 68.8 187.808 72.384c74.016 4.192 295.808 4.192 369.792 0 71.808-3.392 135.392-19.808 187.808-72.384 52.384-52.384 68.8-116 72.384-187.808 4.192-74.016 4.192-295.616 0-369.6zM797.6 776c-15.616 39.2-45.792 69.408-85.216 85.216-59.008 23.392-199.008 18.016-264.192 18.016s-205.408 5.216-264.192-18.016c-39.2-15.616-69.408-45.792-85.216-85.216-23.392-59.008-18.016-199.008-18.016-264.192s-5.216-205.408 18.016-264.192c15.584-39.2 45.792-69.408 85.216-85.184 59.008-23.392 199.008-18.016 264.192-18.016s205.408-5.184 264.192 18.016c39.2 15.584 69.408 45.792 85.216 85.184 23.392 59.008 18.016 199.008 18.016 264.192s5.408 205.408-18.016 264.192z"></path>
</svg>
