<!-- Generated by IcoMoon.io -->
<svg version="1.1" xmlns="http://www.w3.org/2000/svg" width="1024" height="1024" viewBox="0 0 1024 1024">
<title></title>
<g id="icomoon-ignore">
</g>
<path fill="#000" d="M1017 937.8l-242.8-242.8c-4.6-4.6-10.6-7-17-7h-26.4c63-73 101.2-168 101.2-272 0-229.8-186.2-416-416-416s-416 186.2-416 416 186.2 416 416 416c104 0 199-38.2 272-101.2v26.4c0 6.4 2.6 12.4 7 17l242.8 242.8c9.4 9.4 24.6 9.4 34 0l45.2-45.2c9.4-9.4 9.4-24.6 0-34zM416 736c-176.8 0-320-143.2-320-320s143.2-320 320-320 320 143.2 320 320-143.2 320-320 320z"></path>
</svg>
