<!-- Generated by IcoMoon.io -->
<svg version="1.1" xmlns="http://www.w3.org/2000/svg" width="1024" height="1024" viewBox="0 0 1024 1024">
<title></title>
<g id="icomoon-ignore">
</g>
<path fill="#000" d="M918.752 303.424c0.64 9.088 0.64 18.208 0.64 27.296 0 277.44-211.168 597.12-597.12 597.12-118.912 0-229.376-34.432-322.272-94.208 16.896 1.952 33.152 2.592 50.688 2.592 98.112 0 188.416-33.12 260.544-89.664-92.256-1.952-169.6-62.368-196.224-145.536 12.992 1.952 25.984 3.264 39.648 3.264 18.848 0 37.696-2.592 55.232-7.136-96.16-19.488-168.288-103.968-168.288-205.984v-2.592c27.936 15.584 60.416 25.344 94.848 26.624-56.512-37.696-93.568-102.016-93.568-174.784 0-38.976 10.4-74.72 28.576-105.92 103.296 127.36 258.592 210.528 432.736 219.616-3.232-15.584-5.184-31.84-5.184-48.064 0-115.648 93.568-209.856 209.856-209.856 60.416 0 115.008 25.344 153.344 66.272 47.424-9.088 92.928-26.624 133.184-50.688-15.584 48.736-48.736 89.664-92.256 115.648 42.24-4.544 83.168-16.256 120.864-32.48-28.576 41.568-64.32 78.624-105.248 108.512z"></path>
</svg>
