<!-- Generated by IcoMoon.io -->
<svg version="1.1" xmlns="http://www.w3.org/2000/svg" width="896" height="1024" viewBox="0 0 896 1024">
<title></title>
<g id="icomoon-ignore">
</g>
<path fill="#000" d="M627.2 608c-57.408 0-84.992 32-179.2 32s-121.6-32-179.2-32c-148.416 0-268.8 120.384-268.8 268.8v51.2c0 52.992 43.008 96 96 96h704c52.992 0 96-43.008 96-96v-51.2c0-148.384-120.384-268.8-268.8-268.8zM800 928h-704v-51.2c0-95.2 77.6-172.8 172.8-172.8 29.184 0 76.608 32 179.2 32 103.392 0 149.792-32 179.2-32 95.2 0 172.8 77.6 172.8 172.8v51.2zM448 576c159.008 0 288-128.992 288-288s-128.992-288-288-288-288 128.992-288 288 128.992 288 288 288zM448 96c105.792 0 192 86.208 192 192s-86.208 192-192 192-192-86.208-192-192 86.208-192 192-192z"></path>
</svg>
