<!-- Generated by IcoMoon.io -->
<svg version="1.1" xmlns="http://www.w3.org/2000/svg" width="1152" height="1024" viewBox="0 0 1152 1024">
<title></title>
<g id="icomoon-ignore">
</g>
<path fill="#000" d="M1090.016 235.392c7.392-24.992 0-43.392-35.584-43.392h-117.792c-30.016 0-43.808 15.808-51.2 33.408 0 0-60 146.208-144.8 240.992-27.392 27.392-40 36.192-55.008 36.192-7.392 0-18.784-8.8-18.784-33.792v-233.408c0-30.016-8.384-43.392-33.216-43.392h-185.184c-18.816 0-30.016 14.016-30.016 27.008 0 28.416 42.4 35.008 46.816 115.008v173.6c0 38.016-6.816 44.992-21.792 44.992-40 0-137.184-146.816-194.816-314.816-11.584-32.608-23.008-45.792-53.184-45.792h-117.792c-33.6 0-40.384 15.808-40.384 33.408 0 31.2 40 186.208 186.208 391.008 97.408 139.808 234.592 215.616 359.392 215.616 75.008 0 84.192-16.8 84.192-45.792 0-133.6-6.784-146.208 30.784-146.208 17.408 0 47.392 8.8 117.408 76.192 80 80 93.216 115.808 138.016 115.808h117.792c33.6 0 50.592-16.8 40.8-50.016-22.4-69.792-173.792-213.408-180.608-223.008-17.408-22.4-12.384-32.384 0-52.384 0.192-0.192 144-202.592 158.816-271.2z"></path>
</svg>
