<?xml version="1.0" encoding="utf-8"?><svg viewBox="0 0 1152 1024" xmlns="http://www.w3.org/2000/svg" xmlns:xlink="http://www.w3.org/1999/xlink"><style>:root>svg{display:none}:root>svg:target{display:block}</style><svg viewBox="0 0 896 1024" id="arrow-bold" xmlns="http://www.w3.org/2000/svg"><path d="M481.952 261.056l388.672 388.672c18.752 18.752 18.752 49.152 0 67.872l-45.344 45.344c-18.72 18.72-49.056 18.752-67.808.096L447.968 455.008 138.464 763.04c-18.752 18.656-49.088 18.624-67.808-.096L25.312 717.6c-18.752-18.752-18.752-49.152 0-67.872l388.672-388.672c18.752-18.752 49.152-18.752 67.872 0z"/></svg><svg viewBox="0 0 896 1024" id="arrow-bottom" xmlns="http://www.w3.org/2000/svg"><path d="M883.808 334.592l-39.616-39.616c-9.408-9.408-24.608-9.408-34.016 0L447.968 656.384 85.76 294.976c-9.408-9.408-24.608-9.408-34.016 0l-39.616 39.616c-9.408 9.408-9.408 24.608 0 34.016l418.816 418.816c9.408 9.408 24.608 9.408 34.016 0l418.816-418.816c9.408-9.408 9.408-24.608 0-34.016z"/></svg><svg viewBox="0 0 512 1024" id="arrow-left" xmlns="http://www.w3.org/2000/svg"><path d="M462.592 947.808l39.584-39.584c9.376-9.376 9.376-24.576 0-33.952L140.768 512l361.408-362.272c9.376-9.376 9.376-24.576 0-33.952l-39.584-39.584c-9.376-9.376-24.576-9.376-33.952 0L9.824 495.008c-9.376 9.376-9.376 24.576 0 33.952L428.64 947.776c9.376 9.376 24.576 9.376 33.952 0z"/></svg><svg viewBox="0 0 512 1024" id="arrow-right" xmlns="http://www.w3.org/2000/svg"><path d="M49.408 76.192L9.824 115.776c-9.376 9.376-9.376 24.576 0 33.952L371.232 512 9.824 874.272c-9.376 9.376-9.376 24.576 0 33.952l39.584 39.584c9.376 9.376 24.576 9.376 33.952 0l418.816-418.816c9.376-9.376 9.376-24.576 0-33.952L83.36 76.224c-9.376-9.376-24.576-9.376-33.952 0z"/></svg><svg viewBox="0 0 896 1024" id="arrow-top" xmlns="http://www.w3.org/2000/svg"><path d="M12.192 718.592l39.584 39.584c9.376 9.376 24.576 9.376 33.952 0L448 396.768l362.272 361.408c9.376 9.376 24.576 9.376 33.952 0l39.584-39.584c9.376-9.376 9.376-24.576 0-33.952L464.992 265.824c-9.376-9.376-24.576-9.376-33.952 0L12.224 684.64c-9.376 9.376-9.376 24.576 0 33.952z"/></svg><svg viewBox="0 0 896 1024" id="burger" xmlns="http://www.w3.org/2000/svg"><path d="M872 248H24c-13.254 0-24-10.746-24-24v-64c0-13.254 10.746-24 24-24h848c13.254 0 24 10.746 24 24v64c0 13.254-10.746 24-24 24zm0 320H24c-13.254 0-24-10.746-24-24v-64c0-13.254 10.746-24 24-24h848c13.254 0 24 10.746 24 24v64c0 13.254-10.746 24-24 24zm0 320H24c-13.254 0-24-10.746-24-24v-64c0-13.254 10.746-24 24-24h848c13.254 0 24 10.746 24 24v64c0 13.254-10.746 24-24 24z"/></svg><svg viewBox="0 0 1152 1024" id="cart" xmlns="http://www.w3.org/2000/svg"><path d="M1103.968 128H288.544l-17.44-89.216C266.688 16.256 246.944 0 224 0H24C10.752 0 0 10.752 0 24v48c0 13.248 10.752 24 24 24h160.48l139.2 711.392C301.6 830.4 288 861.6 288 896c0 70.688 57.312 128 128 128s128-57.312 128-128v-.128c0-23.52-6.368-45.536-17.504-64.448l.32.608h290.336C806.368 850.336 800 872.384 800 895.904v.16c0 70.688 57.312 128 128 128s128-57.312 128-128c0-36.288-15.104-68.992-39.36-92.288l2.08-9.504c6.496-29.92-16.288-58.208-46.912-58.208H407.52l-18.784-96h624.8c22.592 0 42.112-15.744 46.912-37.792l90.432-416c6.496-29.92-16.288-58.208-46.912-58.208zM416 944c-26.464 0-48-21.536-48-48s21.536-48 48-48 48 21.536 48 48-21.536 48-48 48zm512 0c-26.464 0-48-21.536-48-48s21.536-48 48-48 48 21.536 48 48-21.536 48-48 48zm46.88-400H369.952l-62.624-320h737.088l-69.568 320z"/></svg><svg viewBox="0 0 640 1024" id="clear" xmlns="http://www.w3.org/2000/svg"><path d="M415.2 512l215.424-215.424c12.448-12.448 12.448-32.672 0-45.152l-50.048-50.048c-12.448-12.448-32.672-12.448-45.152 0L320 416.832 104.576 201.408c-12.448-12.448-32.672-12.448-45.152 0L9.376 251.456c-12.448 12.448-12.448 32.672 0 45.152L224.8 512.032 9.376 727.488c-12.448 12.448-12.448 32.672 0 45.152l50.048 50.048c12.448 12.448 32.672 12.448 45.152 0L320 607.232l215.456 215.456c12.448 12.448 32.672 12.448 45.152 0l50.048-50.048c12.448-12.448 12.448-32.672 0-45.152L415.2 512.064z"/></svg><svg aria-hidden="true" data-prefix="fal" data-icon="clock" viewBox="0 0 512 512" class="isvg-inline--fa ifa-clock ifa-w-16 ifa-5x" id="clock" xmlns="http://www.w3.org/2000/svg"><path fill="currentColor" d="M256 8C119 8 8 119 8 256s111 248 248 248 248-111 248-248S393 8 256 8zm216 248c0 118.7-96.1 216-216 216-118.7 0-216-96.1-216-216 0-118.7 96.1-216 216-216 118.7 0 216 96.1 216 216zm-148.9 88.3l-81.2-59c-3.1-2.3-4.9-5.9-4.9-9.7V116c0-6.6 5.4-12 12-12h14c6.6 0 12 5.4 12 12v146.3l70.5 51.3c5.4 3.9 6.5 11.4 2.6 16.8l-8.2 11.3c-3.9 5.3-11.4 6.5-16.8 2.6z"/></svg><svg viewBox="0 0 640 1024" id="facebook" xmlns="http://www.w3.org/2000/svg"><path d="M558.272 576l28.448-185.312H408.896V270.432c0-50.688 24.832-100.128 104.48-100.128h80.832V12.512S520.832 0 450.72 0C304.288 0 208.576 88.768 208.576 249.44v141.248H45.792V576h162.784v448h200.352V576z"/></svg><svg viewBox="0 0 1024 1024" id="heart" xmlns="http://www.w3.org/2000/svg"><path d="M916.8 128.608C801.184 31.392 622.592 46.016 512 158.624 401.408 46.016 222.816 31.232 107.2 128.608-43.2 255.2-21.216 461.6 85.984 571.008L436.8 928.416c20 20.384 46.816 31.808 75.2 31.808 28.608 0 55.2-11.2 75.2-31.616L938.016 571.2c107.008-109.408 129.408-315.808-21.216-442.592zm-47.2 375.008L518.784 861.024c-4.8 4.8-8.8 4.8-13.6 0L154.368 503.616c-72.992-74.4-87.808-215.2 14.592-301.408 77.792-65.408 197.792-55.584 272.992 20.992l70.016 71.392 70.016-71.392c75.616-76.992 195.616-86.4 272.992-21.184 102.208 86.208 87.008 227.808 14.592 301.6z"/></svg><svg viewBox="0 0 1024 1024" id="heart-solid" xmlns="http://www.w3.org/2000/svg"><path d="M924.608 125.216c-109.6-93.408-272.608-76.608-373.184 27.2l-39.392 40.608-39.392-40.608C372.256 48.608 209.024 31.808 99.456 125.216c-125.6 107.2-132.192 299.616-19.808 415.808L466.656 940.64c24.992 25.792 65.6 25.792 90.592 0l387.008-399.616c112.608-116.192 106.016-308.608-19.616-415.808z"/></svg><svg viewBox="0 0 896 1024" id="instagram" xmlns="http://www.w3.org/2000/svg"><path d="M448.192 282.016c-127.2 0-229.792 102.592-229.792 229.792S320.992 741.6 448.192 741.6s229.792-102.592 229.792-229.792-102.592-229.792-229.792-229.792zm0 379.2c-82.208 0-149.408-67.008-149.408-149.408S365.792 362.4 448.192 362.4 597.6 429.408 597.6 511.808s-67.2 149.408-149.408 149.408zm292.8-388.608c0 29.792-24 53.6-53.6 53.6-29.792 0-53.6-24-53.6-53.6s24-53.6 53.6-53.6 53.6 24 53.6 53.6zm152.224 54.4c-3.392-71.808-19.808-135.392-72.384-187.808-52.384-52.416-116-68.8-187.808-72.416-74.016-4.192-295.808-4.192-369.792 0-71.584 3.392-135.2 19.808-187.808 72.192s-68.8 116-72.416 187.808c-4.192 74.016-4.192 295.808 0 369.792C6.4 768.384 22.816 831.968 75.424 884.384s116 68.8 187.808 72.384c74.016 4.192 295.808 4.192 369.792 0 71.808-3.392 135.392-19.808 187.808-72.384 52.384-52.384 68.8-116 72.384-187.808 4.192-74.016 4.192-295.616 0-369.6zM797.6 776c-15.616 39.2-45.792 69.408-85.216 85.216-59.008 23.392-199.008 18.016-264.192 18.016S242.784 884.448 184 861.216C144.8 845.6 114.592 815.424 98.784 776c-23.392-59.008-18.016-199.008-18.016-264.192S75.552 306.4 98.784 247.616c15.584-39.2 45.792-69.408 85.216-85.184 59.008-23.392 199.008-18.016 264.192-18.016s205.408-5.184 264.192 18.016c39.2 15.584 69.408 45.792 85.216 85.184 23.392 59.008 18.016 199.008 18.016 264.192S821.024 717.216 797.6 776z"/></svg><svg aria-hidden="true" data-prefix="fal" data-icon="map-marker-alt" viewBox="0 0 384 512" class="nsvg-inline--fa nfa-map-marker-alt nfa-w-12 nfa-9x" id="map" xmlns="http://www.w3.org/2000/svg"><path fill="currentColor" d="M192 96c-52.935 0-96 43.065-96 96s43.065 96 96 96 96-43.065 96-96-43.065-96-96-96zm0 160c-35.29 0-64-28.71-64-64s28.71-64 64-64 64 28.71 64 64-28.71 64-64 64zm0-256C85.961 0 0 85.961 0 192c0 77.413 26.97 99.031 172.268 309.67 9.534 13.772 29.929 13.774 39.465 0C357.03 291.031 384 269.413 384 192 384 85.961 298.039 0 192 0zm0 473.931C52.705 272.488 32 256.494 32 192c0-42.738 16.643-82.917 46.863-113.137S149.262 32 192 32s82.917 16.643 113.137 46.863S352 149.262 352 192c0 64.49-20.692 80.47-160 281.931z"/></svg><svg aria-hidden="true" data-prefix="fal" data-icon="phone-alt" viewBox="0 0 512 512" class="osvg-inline--fa ofa-phone-alt ofa-w-16 ofa-2x" id="phone" xmlns="http://www.w3.org/2000/svg"><path fill="currentColor" d="M493.09 351.3L384.7 304.8a31.36 31.36 0 00-36.5 8.9l-44.1 53.9A350 350 0 01144.5 208l53.9-44.1a31.35 31.35 0 008.9-36.49l-46.5-108.5A31.33 31.33 0 00125 .81L24.2 24.11A31.05 31.05 0 000 54.51C0 307.8 205.3 512 457.49 512A31.23 31.23 0 00488 487.7L511.19 387a31.21 31.21 0 00-18.1-35.7zM456.89 480C222.4 479.7 32.3 289.7 32.1 55.21l99.6-23 46 107.39-72.8 59.5C153.3 302.3 209.4 358.6 313 407.2l59.5-72.8 107.39 46z"/></svg><svg viewBox="0 0 1024 1024" id="search" xmlns="http://www.w3.org/2000/svg"><path d="M1017 937.8L774.2 695c-4.6-4.6-10.6-7-17-7h-26.4c63-73 101.2-168 101.2-272C832 186.2 645.8 0 416 0S0 186.2 0 416s186.2 416 416 416c104 0 199-38.2 272-101.2v26.4c0 6.4 2.6 12.4 7 17L937.8 1017c9.4 9.4 24.6 9.4 34 0l45.2-45.2c9.4-9.4 9.4-24.6 0-34zM416 736C239.2 736 96 592.8 96 416S239.2 96 416 96s320 143.2 320 320-143.2 320-320 320z"/></svg><svg viewBox="0 0 1024 1024" id="twitter" xmlns="http://www.w3.org/2000/svg"><path d="M918.752 303.424c.64 9.088.64 18.208.64 27.296 0 277.44-211.168 597.12-597.12 597.12C203.36 927.84 92.896 893.408 0 833.632c16.896 1.952 33.152 2.592 50.688 2.592 98.112 0 188.416-33.12 260.544-89.664-92.256-1.952-169.6-62.368-196.224-145.536 12.992 1.952 25.984 3.264 39.648 3.264 18.848 0 37.696-2.592 55.232-7.136C113.728 577.664 41.6 493.184 41.6 391.168v-2.592c27.936 15.584 60.416 25.344 94.848 26.624C79.936 377.504 42.88 313.184 42.88 240.416c0-38.976 10.4-74.72 28.576-105.92 103.296 127.36 258.592 210.528 432.736 219.616-3.232-15.584-5.184-31.84-5.184-48.064 0-115.648 93.568-209.856 209.856-209.856 60.416 0 115.008 25.344 153.344 66.272 47.424-9.088 92.928-26.624 133.184-50.688-15.584 48.736-48.736 89.664-92.256 115.648 42.24-4.544 83.168-16.256 120.864-32.48-28.576 41.568-64.32 78.624-105.248 108.512z"/></svg><svg viewBox="0 0 896 1024" id="user" xmlns="http://www.w3.org/2000/svg"><path d="M627.2 608c-57.408 0-84.992 32-179.2 32s-121.6-32-179.2-32C120.384 608 0 728.384 0 876.8V928c0 52.992 43.008 96 96 96h704c52.992 0 96-43.008 96-96v-51.2C896 728.416 775.616 608 627.2 608zM800 928H96v-51.2C96 781.6 173.6 704 268.8 704c29.184 0 76.608 32 179.2 32 103.392 0 149.792-32 179.2-32 95.2 0 172.8 77.6 172.8 172.8V928zM448 576c159.008 0 288-128.992 288-288S607.008 0 448 0 160 128.992 160 288s128.992 288 288 288zm0-480c105.792 0 192 86.208 192 192s-86.208 192-192 192-192-86.208-192-192S342.208 96 448 96z"/></svg><svg viewBox="0 0 1152 1024" id="vk" xmlns="http://www.w3.org/2000/svg"><path d="M1090.016 235.392c7.392-24.992 0-43.392-35.584-43.392H936.64c-30.016 0-43.808 15.808-51.2 33.408 0 0-60 146.208-144.8 240.992-27.392 27.392-40 36.192-55.008 36.192-7.392 0-18.784-8.8-18.784-33.792V235.392c0-30.016-8.384-43.392-33.216-43.392H448.448c-18.816 0-30.016 14.016-30.016 27.008 0 28.416 42.4 35.008 46.816 115.008v173.6c0 38.016-6.816 44.992-21.792 44.992-40 0-137.184-146.816-194.816-314.816C237.056 205.184 225.632 192 195.456 192H77.664c-33.6 0-40.384 15.808-40.384 33.408 0 31.2 40 186.208 186.208 391.008C320.896 756.224 458.08 832.032 582.88 832.032c75.008 0 84.192-16.8 84.192-45.792 0-133.6-6.784-146.208 30.784-146.208 17.408 0 47.392 8.8 117.408 76.192 80 80 93.216 115.808 138.016 115.808h117.792c33.6 0 50.592-16.8 40.8-50.016-22.4-69.792-173.792-213.408-180.608-223.008-17.408-22.4-12.384-32.384 0-52.384.192-.192 144-202.592 158.816-271.2z"/></svg></svg>