<svg width="347" height="24" viewBox="0 0 347 24" fill="none" xmlns="http://www.w3.org/2000/svg">
<path d="M173.566 11.2285V20.0001H178.654V14.8021H184.42C186.845 14.7859 188.906 13.2996 189.686 11.2285H173.566Z" fill="#37A72E"/>
<path d="M172.889 4C173.185 7.58173 176.73 10.4162 181.054 10.4162H189.898C189.966 10.0832 190 9.74213 190 9.40102C190 6.42843 187.499 4.02437 184.404 4H172.889Z" fill="url(#paint0_linear)"/>
<path d="M165.359 10.3269V10.3188V10.3269C165.444 10.1807 165.63 10.1239 165.774 10.2051C165.867 10.2538 165.927 10.3513 165.935 10.4487V19.9188H171.023V4H165.935C165.291 4.02437 164.562 4.47107 164.29 5.03147L160.246 13.3482C160.237 13.3807 160.22 13.4132 160.203 13.4457C160.093 13.5919 159.881 13.6325 159.728 13.5269C159.635 13.4701 159.584 13.3645 159.584 13.2589V4H154.497V19.9188H159.584C160.22 19.8863 160.932 19.4396 161.204 18.8873L165.359 10.3513C165.35 10.3431 165.359 10.335 165.359 10.3269ZM146.365 10.603L143.388 19.9188H139.725L136.749 10.5949C136.715 10.4244 136.537 10.3025 136.359 10.335C136.198 10.3675 136.079 10.4975 136.088 10.6518V19.9107H131V4H136.664C137.597 4 138.581 4.69848 138.852 5.55127L141.328 13.3076C141.455 13.6975 141.65 13.6893 141.777 13.3076L144.253 5.55127C144.533 4.69848 145.508 4 146.45 4H152.114V19.9188H147.026V10.6518C147.026 10.4731 146.874 10.3269 146.695 10.3269C146.526 10.335 146.39 10.4487 146.365 10.603Z" fill="#37A72E"/>
<g clip-path="url(#clip0)">
<path d="M75.1733 4.27588L72.3652 19.8161H76.8195L79.6276 4.27588H75.1733Z" fill="#264795"/>
<mask id="mask0" mask-type="alpha" maskUnits="userSpaceOnUse" x="79" y="4" width="14" height="17">
<path d="M92.9662 4.0459H79.6035V20.1379H92.9662V4.0459Z" fill="white"/>
</mask>
<g mask="url(#mask0)">
<path d="M92.9662 4.68958C92.0947 4.41371 90.7391 4.0459 88.9961 4.0459C84.6387 4.0459 81.5401 6.16084 81.4433 9.19532C81.4433 11.4022 83.6704 12.6896 85.3165 13.4252C87.0595 14.1608 87.6405 14.7126 87.6405 15.3562C87.6405 16.3677 86.2849 16.8275 84.9292 16.8275C83.1863 16.8275 82.218 16.5516 80.7655 15.9999L80.1845 15.7241L79.6035 19.2183C80.6687 19.6781 82.6053 20.0459 84.5419 20.0459C89.1898 20.0459 92.2884 17.931 92.2884 14.7126C92.2884 12.9654 91.1264 11.5861 88.512 10.4827C87.0595 9.74705 86.0912 9.28728 86.0912 8.55165C86.0912 7.90797 86.8658 7.17234 88.6088 7.17234C89.7708 7.17234 90.9327 7.35624 91.9011 7.72406L92.3852 7.99992L92.9662 4.68958Z" fill="#264795"/>
</g>
<path d="M98.8984 14.2989C99.2858 13.3793 100.641 9.97703 100.641 9.97703C100.641 9.97703 101.029 9.05749 101.222 8.50576L101.513 9.88507L102.578 14.3908C102.578 14.2989 98.8984 14.2989 98.8984 14.2989ZM104.418 4.27588H100.932C99.8668 4.27588 99.0921 4.55174 98.608 5.56324L92.0234 19.8161H96.6713C96.6713 19.8161 97.446 17.8851 97.6396 17.5173H103.353C103.45 18.069 103.934 19.8161 103.934 19.8161H108.097L104.418 4.27588ZM68.6872 4.27588L64.3298 14.8506L63.8456 12.7356C63.071 10.2529 60.5534 7.58622 57.6484 6.20691L61.6185 19.8161H66.3632L73.3351 4.27588H68.6872Z" fill="#264795"/>
<path d="M60.2623 4.27588H53.0968L53 4.55174C58.6162 5.8391 62.2958 8.96553 63.8451 12.7356L62.2958 5.56324C62.0053 4.6437 61.2306 4.27588 60.2623 4.27588Z" fill="#F8A51C"/>
</g>
<g clip-path="url(#clip1)">
<path d="M29.3996 23.6608V23.7225H29.4596C29.4746 23.7225 29.4896 23.7225 29.4896 23.707C29.4896 23.707 29.5046 23.6916 29.5046 23.6762C29.5046 23.6608 29.5046 23.6608 29.4896 23.6608C29.4746 23.6608 29.4746 23.6453 29.4596 23.6453L29.3996 23.6608ZM29.4446 23.6299C29.4746 23.6299 29.4896 23.6299 29.5046 23.6453C29.5196 23.6608 29.5346 23.6762 29.5346 23.707C29.5346 23.7225 29.5346 23.7379 29.5196 23.7533C29.5046 23.7687 29.4896 23.7687 29.4596 23.7687L29.5346 23.8613H29.4746L29.3996 23.7687H29.3846V23.8613H29.3395V23.6299H29.4446ZM29.4296 23.9384C29.4596 23.9384 29.4746 23.9384 29.5046 23.923C29.5797 23.8921 29.6247 23.815 29.6247 23.7379C29.6247 23.707 29.6247 23.6916 29.6097 23.6608C29.5947 23.6145 29.5496 23.5836 29.5046 23.5528C29.4896 23.5374 29.4596 23.5374 29.4296 23.5374C29.3996 23.5374 29.3846 23.5374 29.3545 23.5528C29.3245 23.5682 29.3095 23.5836 29.2945 23.5991C29.2795 23.6145 29.2645 23.6453 29.2495 23.6608C29.2345 23.6916 29.2345 23.707 29.2345 23.7379C29.2345 23.7687 29.2345 23.7842 29.2495 23.815C29.2645 23.8613 29.3095 23.9075 29.3545 23.923C29.3846 23.9384 29.4146 23.9384 29.4296 23.9384ZM29.4296 23.4911C29.4596 23.4911 29.4896 23.4911 29.5196 23.5065C29.5797 23.5374 29.6247 23.5836 29.6547 23.6453C29.6697 23.6762 29.6697 23.707 29.6697 23.7379C29.6697 23.7687 29.6697 23.7996 29.6547 23.8304C29.6397 23.8613 29.6247 23.8921 29.5947 23.9075C29.5646 23.923 29.5496 23.9538 29.5196 23.9692C29.4896 23.9847 29.4596 23.9847 29.4296 23.9847C29.3696 23.9847 29.2945 23.9538 29.2495 23.9075C29.2345 23.8921 29.2045 23.8613 29.1895 23.8304C29.1745 23.7996 29.1745 23.7687 29.1745 23.7379C29.1745 23.707 29.1745 23.6762 29.1895 23.6453C29.2045 23.6145 29.2195 23.5836 29.2495 23.5682C29.2645 23.5528 29.2945 23.5219 29.3245 23.5065C29.3696 23.4911 29.3996 23.4911 29.4296 23.4911ZM6.45309 22.5965C6.45309 22.1492 6.73824 21.779 7.20347 21.779C7.65369 21.779 7.93884 22.1338 7.93884 22.5965C7.93884 23.0592 7.63869 23.414 7.20347 23.414C6.73824 23.3986 6.45309 23.0438 6.45309 22.5965ZM8.44909 22.5965V21.3317H7.90882V21.6402C7.74374 21.4088 7.48861 21.27 7.12843 21.27C6.43809 21.27 5.89782 21.8253 5.89782 22.5965C5.89782 23.3677 6.43809 23.923 7.12843 23.923C7.4736 23.923 7.74374 23.7842 7.90882 23.5528V23.8613H8.44909V22.5965ZM26.5481 22.5965C26.5481 22.1492 26.8333 21.779 27.2985 21.779C27.7487 21.779 28.0339 22.1338 28.0339 22.5965C28.0339 23.0592 27.7337 23.414 27.2985 23.414C26.8333 23.3986 26.5481 23.0438 26.5481 22.5965ZM28.5441 22.5965V20.3137H28.0039V21.6402C27.8388 21.4088 27.5687 21.27 27.2235 21.27C26.5331 21.27 25.9929 21.8253 25.9929 22.5965C25.9929 23.3677 26.5331 23.923 27.2235 23.923C27.5687 23.923 27.8388 23.7842 28.0039 23.5528V23.8613H28.5441V22.5965ZM15.0974 21.7482C15.4426 21.7482 15.6677 21.9641 15.7277 22.3651H14.4521C14.4971 22.0104 14.7222 21.7482 15.0974 21.7482ZM15.1124 21.27C14.3921 21.27 13.8818 21.8099 13.8818 22.5965C13.8818 23.3986 14.4071 23.923 15.1424 23.923C15.5176 23.923 15.8478 23.8304 16.1479 23.5682L15.8928 23.1672C15.6827 23.3369 15.4276 23.4294 15.1725 23.4294C14.8273 23.4294 14.5121 23.2597 14.4371 22.8124H16.268C16.268 22.7507 16.283 22.6736 16.283 22.5965C16.268 21.8099 15.8028 21.27 15.1124 21.27ZM21.5807 22.5965C21.5807 22.1492 21.8658 21.779 22.331 21.779C22.7813 21.779 23.0664 22.1338 23.0664 22.5965C23.0664 23.0592 22.7663 23.414 22.331 23.414C21.8508 23.3986 21.5807 23.0438 21.5807 22.5965ZM23.5616 22.5965V21.3317H23.0214V21.6402C22.8563 21.4088 22.6012 21.27 22.241 21.27C21.5506 21.27 21.0104 21.8253 21.0104 22.5965C21.0104 23.3677 21.5506 23.923 22.241 23.923C22.5862 23.923 22.8413 23.7842 23.0214 23.5528V23.8613H23.5616V22.5965ZM18.5491 22.5965C18.5491 23.3677 19.0744 23.923 19.8698 23.923C20.245 23.923 20.4851 23.8304 20.7552 23.6145L20.5001 23.1672C20.305 23.3214 20.0949 23.3986 19.8548 23.3986C19.4346 23.3986 19.1194 23.0746 19.1194 22.5811C19.1194 22.0875 19.4346 21.779 19.8548 21.7636C20.0799 21.7636 20.305 21.8407 20.5001 21.995L20.7552 21.5477C20.4851 21.3317 20.245 21.2392 19.8698 21.2392C19.0744 21.27 18.5491 21.8253 18.5491 22.5965ZM25.4526 21.27C25.1374 21.27 24.9423 21.4243 24.8073 21.6402V21.3317H24.282V23.8613H24.8223V22.4423C24.8223 22.0258 25.0024 21.7944 25.3475 21.7944C25.4526 21.7944 25.5727 21.8099 25.6777 21.8561L25.8428 21.3317C25.7227 21.2854 25.5576 21.27 25.4526 21.27ZM11.1054 21.5322C10.8503 21.3626 10.4901 21.27 10.0999 21.27C9.4696 21.27 9.07941 21.5785 9.07941 22.0875C9.07941 22.5039 9.37956 22.7507 9.93484 22.8279L10.19 22.8587C10.4901 22.905 10.6252 22.9821 10.6252 23.1209C10.6252 23.3214 10.4301 23.4294 10.0699 23.4294C9.69472 23.4294 9.42458 23.306 9.24449 23.1672L8.98936 23.5991C9.28951 23.815 9.64969 23.923 10.0549 23.923C10.7602 23.923 11.1805 23.5836 11.1805 23.0901C11.1805 22.6428 10.8503 22.4114 10.325 22.3343L10.0699 22.3034C9.84479 22.2726 9.64969 22.2263 9.64969 22.0566C9.64969 21.8716 9.82978 21.7636 10.1149 21.7636C10.4301 21.7636 10.7302 21.887 10.8803 21.9795L11.1054 21.5322ZM18.0089 21.27C17.6937 21.27 17.4986 21.4243 17.3636 21.6402V21.3317H16.8383V23.8613H17.3786V22.4423C17.3786 22.0258 17.5586 21.7944 17.9038 21.7944C18.0089 21.7944 18.1289 21.8099 18.234 21.8561L18.3991 21.3317C18.279 21.2854 18.1139 21.27 18.0089 21.27ZM13.4466 21.3317H12.5762V20.5605H12.0359V21.3317H11.5406V21.8407H12.0359V22.9975C12.0359 23.5836 12.261 23.9384 12.8913 23.9384C13.1164 23.9384 13.3866 23.8613 13.5667 23.7379L13.4166 23.2597C13.2515 23.3523 13.0864 23.3986 12.9363 23.3986C12.6662 23.3986 12.5762 23.2289 12.5762 22.9821V21.8407H13.4466V21.3317ZM5.43258 23.8613V22.2726C5.43258 21.671 5.0574 21.27 4.4571 21.27C4.14194 21.27 3.81177 21.3626 3.58666 21.7173C3.42158 21.4397 3.15144 21.27 2.77626 21.27C2.50612 21.27 2.25099 21.3471 2.0559 21.6402V21.3317H1.51562V23.8613H2.0559V22.4577C2.0559 22.0258 2.29602 21.779 2.6562 21.779C3.01638 21.779 3.19647 22.0104 3.19647 22.4423V23.8459H3.75174V22.4423C3.75174 22.0104 3.99186 21.7636 4.35204 21.7636C4.71222 21.7636 4.89231 21.995 4.89231 22.4268V23.8304H5.43258V23.8613Z" fill="white"/>
<path d="M29.7296 15.4395V15.0693H29.6396L29.5345 15.3161L29.4295 15.0693H29.3394V15.4395H29.3994V15.1619L29.5045 15.4087H29.5795L29.6846 15.1619V15.4395H29.7296ZM29.1293 15.4395V15.131H29.2494V15.0693H28.9492V15.131H29.0693V15.4395H29.1293Z" fill="#F79410"/>
<path d="M19.0605 17.0282H10.9414V2.03589H19.0605V17.0282Z" fill="#FF5F00"/>
<path d="M11.4657 9.53213C11.4657 6.49357 12.8464 3.77892 15.0075 2.03599C13.3717 0.709511 11.3607 0 9.27464 0C4.15708 0 0 4.27249 0 9.53213C0 14.7918 4.15708 19.0643 9.27464 19.0643C11.3607 19.0643 13.3717 18.3548 15.0075 17.0283C12.8464 15.2853 11.4657 12.5707 11.4657 9.53213Z" fill="#EB001B"/>
<path d="M29.9997 9.53213C29.9997 14.7918 25.8426 19.0643 20.7251 19.0643C18.639 19.0643 16.628 18.3548 14.9922 17.0283C17.1533 15.2853 18.534 12.5707 18.534 9.53213C18.534 6.49357 17.1533 3.77892 14.9922 2.03599C16.628 0.709511 18.654 0 20.7251 0C25.8576 0 29.9997 4.27249 29.9997 9.53213Z" fill="#F79E1B"/>
</g>
<g clip-path="url(#clip2)">
<path d="M227.921 6.1876C227.729 6.36694 227.537 6.53814 227.353 6.72564C226.688 7.36966 226.184 8.11151 226.008 9.04086C225.768 10.3289 226.024 11.511 226.793 12.5707C227.177 13.1006 227.633 13.5409 228.241 13.7936C228.314 13.8262 228.386 13.8506 228.474 13.8832C228.394 14.1034 228.322 14.3153 228.241 14.5273C227.745 15.7501 227.105 16.8832 226.224 17.8615C226.064 18.0409 225.872 18.2121 225.688 18.3669C225.047 18.8968 224.327 19.1006 223.51 18.8561C223.102 18.7338 222.702 18.6034 222.302 18.4729C221.885 18.3425 221.469 18.2365 221.029 18.2284C220.484 18.2121 219.988 18.3832 219.484 18.5707C219.1 18.7175 218.723 18.8642 218.331 18.9539C217.715 19.1006 217.154 18.9131 216.642 18.5544C216.122 18.1957 215.713 17.7311 215.361 17.2175C214.473 15.9213 213.792 14.5273 213.376 13.0028C213.008 11.6496 212.904 10.2718 213.112 8.87781C213.296 7.64684 213.744 6.53814 214.593 5.6251C215.473 4.67944 216.554 4.28814 217.827 4.41042C218.459 4.47564 219.06 4.66314 219.668 4.84249C219.924 4.91586 220.18 4.97292 220.436 5.03814C220.805 5.13597 221.165 5.08705 221.517 4.98107C222.013 4.83433 222.51 4.66314 223.006 4.5164C223.743 4.29629 224.495 4.23107 225.256 4.37781C226.24 4.57347 227.025 5.11151 227.673 5.86966C227.753 5.96749 227.833 6.05716 227.913 6.15499C227.913 6.16314 227.913 6.17129 227.921 6.1876Z" fill="white"/>
<path d="M224.214 0C224.222 0.220109 224.254 0.432065 224.238 0.63587C224.158 1.75272 223.733 2.71467 222.973 3.52174C222.629 3.88859 222.253 4.20652 221.788 4.39402C221.388 4.55706 220.972 4.58967 220.547 4.62228C220.539 4.62228 220.531 4.61413 220.523 4.61413C220.587 2.11956 221.82 0.505435 224.214 0Z" fill="white"/>
<path d="M233.188 2.96725C234.164 2.80421 235.445 2.65747 237.078 2.65747C239.079 2.65747 240.544 3.1303 241.481 3.98628C242.345 4.74443 242.858 5.91019 242.858 7.32867C242.858 8.7716 242.441 9.91291 241.649 10.7444C240.576 11.9102 238.831 12.4971 236.854 12.4971C236.245 12.4971 235.693 12.4727 235.221 12.3586V18.758H233.196V2.96725H233.188ZM235.213 10.6711C235.653 10.7933 236.213 10.8341 236.886 10.8341C239.327 10.8341 240.824 9.62758 240.824 7.41834C240.824 5.30693 239.359 4.28791 237.118 4.28791C236.229 4.28791 235.557 4.36128 235.205 4.45095V10.6711H235.213Z" fill="white"/>
<path d="M250.158 18.7579L249.998 17.315H249.926C249.293 18.2199 248.085 19.0188 246.476 19.0188C244.194 19.0188 243.025 17.3802 243.025 15.7253C243.025 12.9536 245.451 11.4291 249.798 11.4536V11.2172C249.798 10.2715 249.542 8.55956 247.236 8.55956C246.187 8.55956 245.091 8.8938 244.298 9.41554L243.834 8.03782C244.763 7.41826 246.115 7.0188 247.54 7.0188C250.991 7.0188 251.823 9.41554 251.823 11.7145V16.0106C251.823 17.0052 251.871 17.9753 252.007 18.7579H250.158ZM249.862 12.9047C247.628 12.8558 245.091 13.2634 245.091 15.4889C245.091 16.8422 245.979 17.478 247.02 17.478C248.485 17.478 249.422 16.5324 249.742 15.5541C249.814 15.3422 249.862 15.1058 249.862 14.8938V12.9047Z" fill="white"/>
<path d="M254.562 7.27979L257.027 14.0624C257.283 14.8206 257.563 15.7254 257.748 16.4102H257.796C258.004 15.7254 258.236 14.845 258.516 14.0135L260.75 7.27979H262.919L259.845 15.4646C258.38 19.4021 257.379 21.4157 255.978 22.6466C254.978 23.5515 253.977 23.9021 253.465 23.9999L252.953 22.2472C253.465 22.0841 254.137 21.7499 254.746 21.2282C255.306 20.7798 256.002 19.9727 256.467 18.9048C256.563 18.6928 256.627 18.5216 256.627 18.4075C256.627 18.2934 256.579 18.1222 256.491 17.8613L252.328 7.27979H254.562Z" fill="white"/>
</g>
<g clip-path="url(#clip3)">
<path d="M314.613 3.52826V9.58767H318.348C319.23 9.58767 319.977 9.28215 320.554 8.68809C321.148 8.09403 321.454 7.38116 321.454 6.54948C321.454 5.73477 321.148 5.03887 320.554 4.44481C319.977 3.83378 319.23 3.52826 318.348 3.52826H314.613ZM314.613 11.7263V18.7532H312.373V1.38965H318.297C319.807 1.38965 321.08 1.89884 322.133 2.90026C323.202 3.90167 323.745 5.12374 323.745 6.56645C323.745 8.04311 323.219 9.26518 322.133 10.2496C321.097 11.2341 319.824 11.7263 318.297 11.7263H314.613Z" fill="white"/>
<path d="M326.003 15.121C326.003 15.6981 326.258 16.1903 326.75 16.5807C327.242 16.9711 327.819 17.1578 328.481 17.1578C329.415 17.1578 330.263 16.8014 330.993 16.1224C331.723 15.4265 332.096 14.6118 332.096 13.6783C331.401 13.1352 330.433 12.8466 329.177 12.8466C328.277 12.8466 327.514 13.0673 326.903 13.5086C326.309 13.9329 326.003 14.476 326.003 15.121ZM328.888 6.48169C330.535 6.48169 331.842 6.92299 332.792 7.80559C333.743 8.6882 334.218 9.89329 334.218 11.4378V18.7702H332.079V17.1238H331.978C331.061 18.4817 329.822 19.1606 328.294 19.1606C326.987 19.1606 325.884 18.7702 325.002 17.9895C324.119 17.2087 323.678 16.2412 323.678 15.0701C323.678 13.848 324.136 12.8636 325.07 12.1337C326.003 11.4039 327.242 11.0475 328.804 11.0475C330.128 11.0475 331.231 11.2851 332.079 11.7773V11.2681C332.079 10.4873 331.774 9.8254 331.163 9.29923C330.552 8.75609 329.822 8.48452 329.007 8.48452C327.768 8.48452 326.767 9.01069 326.037 10.063L324.068 8.82398C325.171 7.26245 326.767 6.48169 328.888 6.48169Z" fill="white"/>
<path d="M346.504 6.86499L339.035 23.9909H336.744L339.511 17.9994L334.605 6.86499H337.033L340.58 15.4195H340.631L344.076 6.86499H346.504Z" fill="white"/>
<path d="M305.582 10.2113C305.582 9.51544 305.514 8.83651 305.412 8.17456H295.992V12.0105H301.39C301.152 13.2835 300.456 14.3358 299.387 15.0487V17.5437H302.612C304.496 15.8125 305.582 13.2495 305.582 10.2113Z" fill="#4285F4"/>
<path d="M295.99 19.9537C298.689 19.9537 300.963 19.0711 302.61 17.5435L299.385 15.0485C298.485 15.6595 297.331 15.999 295.99 15.999C293.377 15.999 291.17 14.2507 290.389 11.8745H287.062V14.4375C288.709 17.7302 292.087 19.9537 295.99 19.9537Z" fill="#34A853"/>
<path d="M290.39 11.8915C290.187 11.2805 290.085 10.6525 290.085 9.97358C290.085 9.31163 290.203 8.66665 290.39 8.05562V5.49268H287.063C286.385 6.85053 285.994 8.36113 285.994 9.97358C285.994 11.586 286.385 13.1136 287.063 14.4545L290.39 11.8915Z" fill="#FABB05"/>
<path d="M295.99 3.94815C297.467 3.94815 298.791 4.45734 299.826 5.44178L302.678 2.60727C300.947 0.994823 298.689 -0.0065918 295.99 -0.0065918C292.087 -0.0065918 288.709 2.23386 287.062 5.4927L290.372 8.05564C291.17 5.69638 293.393 3.94815 295.99 3.94815Z" fill="#E94235"/>
</g>
<defs>
<linearGradient id="paint0_linear" x1="172.888" y1="7.20824" x2="189.997" y2="7.20824" gradientUnits="userSpaceOnUse">
<stop stop-color="#00A0E5"/>
<stop offset="1" stop-color="#0077C3"/>
</linearGradient>
<clipPath id="clip0">
<rect width="55" height="16" fill="white" transform="translate(53 4)"/>
</clipPath>
<clipPath id="clip1">
<rect width="30" height="24" fill="white"/>
</clipPath>
<clipPath id="clip2">
<rect width="49.92" height="24" fill="white" transform="translate(213)"/>
</clipPath>
<clipPath id="clip3">
<rect width="60.4922" height="24" fill="white" transform="translate(286)"/>
</clipPath>
</defs>
</svg>
